<?xml version="1.0" standalone="no"?>
<!DOCTYPE svg PUBLIC "-//W3C//DTD SVG 20010904//EN"
 "http://www.w3.org/TR/2001/REC-SVG-20010904/DTD/svg10.dtd">
<svg version="1.0" xmlns="http://www.w3.org/2000/svg"
 width="172.000000pt" height="100.000000pt" viewBox="0 0 172.000000 100.000000"
 preserveAspectRatio="xMidYMid meet">

<g transform="translate(0.000000,100.000000) scale(0.100000,-0.100000)"
fill="#000000" stroke="none">
<path d="M856 980 c-222 -35 -406 -127 -557 -279 -167 -168 -268 -384 -286
-612 -6 -76 -5 -79 16 -79 19 0 21 6 21 50 0 131 63 324 149 456 131 202 326
342 561 405 121 33 326 33 455 1 115 -29 271 -105 359 -176 65 -52 106 -70
106 -46 0 20 -168 142 -255 185 -164 82 -402 121 -569 95z"/>
<path d="M1660 465 c0 -96 3 -115 15 -115 12 0 15 19 15 115 0 96 -3 115 -15
115 -12 0 -15 -19 -15 -115z"/>
<path d="M1180 549 c0 -25 33 -22 38 4 2 12 -3 17 -17 17 -15 0 -21 -6 -21
-21z"/>
<path d="M969 453 c38 -97 39 -98 72 -98 33 0 35 2 71 90 44 105 44 105 20
105 -14 0 -27 -20 -49 -77 -17 -42 -35 -79 -40 -80 -6 -2 -23 31 -39 74 -23
61 -34 79 -51 81 -21 3 -21 0 16 -95z"/>
<path d="M1180 429 c0 -71 2 -80 18 -77 14 3 17 16 20 81 3 72 1 77 -18 77
-18 0 -20 -6 -20 -81z"/>
<path d="M1267 503 c-4 -3 -7 -40 -7 -80 0 -66 2 -74 18 -71 14 3 18 16 20 66
l3 62 37 0 c51 0 62 -14 62 -77 0 -40 4 -53 15 -53 12 0 15 13 15 60 0 81 -18
100 -98 100 -32 0 -62 -3 -65 -7z"/>
<path d="M1481 438 c16 -40 34 -75 40 -78 6 -5 6 -16 -1 -34 -13 -36 -13 -38
5 -34 9 2 34 43 55 92 52 118 55 126 36 126 -9 0 -26 -25 -42 -60 -15 -33 -30
-60 -34 -60 -4 0 -18 27 -30 60 -16 43 -28 60 -41 60 -16 0 -15 -7 12 -72z"/>
<path d="M720 125 c0 -96 3 -115 15 -115 12 0 15 19 15 115 0 96 -3 115 -15
115 -12 0 -15 -19 -15 -115z"/>
<path d="M807 234 c-4 -4 -7 -56 -7 -116 0 -102 1 -108 20 -108 20 0 21 5 18
112 -3 103 -11 132 -31 112z"/>
<path d="M890 210 c0 -11 7 -20 15 -20 8 0 15 9 15 20 0 11 -7 20 -15 20 -8 0
-15 -9 -15 -20z"/>
<path d="M541 191 c-10 -18 -71 -172 -71 -178 0 -2 8 -3 19 -3 14 0 26 21 51
85 18 47 36 85 40 85 4 0 22 -38 39 -85 25 -66 37 -85 52 -85 24 0 24 -3 -19
105 -35 85 -39 90 -69 93 -23 2 -34 -2 -42 -17z"/>
<path d="M890 90 c0 -64 3 -80 15 -80 12 0 15 16 15 80 0 64 -3 80 -15 80 -12
0 -15 -16 -15 -80z"/>
<path d="M970 155 c0 -11 12 -15 49 -15 28 0 53 -6 60 -13 16 -20 4 -27 -45
-27 -60 0 -74 -8 -74 -40 0 -41 20 -51 92 -48 l63 3 3 57 c4 77 -16 98 -93 98
-42 0 -55 -3 -55 -15z m115 -95 c0 -18 -72 -27 -87 -12 -19 19 3 33 45 30 29
-2 42 -8 42 -18z"/>
<path d="M1168 164 c-5 -4 -8 -40 -8 -81 0 -57 3 -73 15 -73 10 0 15 16 17 62
l3 63 36 3 c51 4 69 -17 69 -79 0 -37 4 -49 15 -49 25 0 21 112 -5 135 -22 20
-128 34 -142 19z"/>
<path d="M1390 152 c-30 -24 -33 -91 -6 -121 24 -26 126 -31 126 -7 0 11 -15
16 -52 18 -52 3 -53 4 -56 36 -5 46 12 62 64 62 32 0 44 4 44 15 0 23 -91 20
-120 -3z"/>
<path d="M1566 154 c-19 -19 -22 -114 -4 -132 18 -18 138 -16 138 3 0 10 -15
15 -57 17 -74 4 -87 28 -15 28 54 0 82 17 82 50 0 10 -7 26 -16 34 -21 21
-107 21 -128 0z m103 -23 c24 -15 1 -31 -45 -31 -42 0 -57 14 -37 33 9 10 66
8 82 -2z"/>
</g>
</svg>
